<svg width="32" height="32" viewBox="0 0 32 32" fill="none" xmlns="http://www.w3.org/2000/svg">
<rect width="32" height="32" rx="16" fill="#131313" fill-opacity="0.7"/>
<mask id="mask0_487_2397" style="mask-type:alpha" maskUnits="userSpaceOnUse" x="4" y="4" width="24" height="24">
<rect x="4" y="4" width="24" height="24" fill="#D9D9D9"/>
</mask>
<g mask="url(#mask0_487_2397)">
<path d="M11.373 16.7501L16.5422 21.9193C16.6909 22.068 16.7643 22.242 16.7625 22.4413C16.7605 22.6406 16.682 22.8179 16.527 22.9731C16.3718 23.1179 16.1961 23.1929 16 23.1981C15.8038 23.2032 15.6281 23.1282 15.473 22.9731L9.1327 16.6328C9.03904 16.5391 8.97304 16.4404 8.9347 16.3366C8.8962 16.2327 8.87695 16.1206 8.87695 16.0001C8.87695 15.8796 8.8962 15.7674 8.9347 15.6636C8.97304 15.5597 9.03904 15.461 9.1327 15.3673L15.473 9.02705C15.6115 8.88855 15.783 8.81772 15.9875 8.81455C16.192 8.81139 16.3718 8.88222 16.527 9.02705C16.682 9.18222 16.7595 9.36039 16.7595 9.56155C16.7595 9.76289 16.682 9.94114 16.527 10.0963L11.373 15.2501H22.75C22.9628 15.2501 23.141 15.3219 23.2845 15.4656C23.4281 15.6091 23.5 15.7872 23.5 16.0001C23.5 16.2129 23.4281 16.3911 23.2845 16.5346C23.141 16.6782 22.9628 16.7501 22.75 16.7501H11.373Z" fill="#EEEEEE"/>
</g>
</svg>
