<svg width="32" height="32" viewBox="0 0 32 32" fill="none" xmlns="http://www.w3.org/2000/svg">
<rect width="32" height="32" rx="16" fill="#131313" fill-opacity="0.7"/>
<mask id="mask0_487_2396" style="mask-type:alpha" maskUnits="userSpaceOnUse" x="4" y="4" width="24" height="24">
<rect x="4" y="4" width="24" height="24" fill="#D9D9D9"/>
</mask>
<g mask="url(#mask0_487_2396)">
<path d="M16 23.2692C15.5875 23.2692 15.2344 23.1223 14.9408 22.8285C14.6469 22.5348 14.5 22.1817 14.5 21.7692C14.5 21.3567 14.6469 21.0035 14.9408 20.7097C15.2344 20.416 15.5875 20.2692 16 20.2692C16.4125 20.2692 16.7656 20.416 17.0592 20.7097C17.3531 21.0035 17.5 21.3567 17.5 21.7692C17.5 22.1817 17.3531 22.5348 17.0592 22.8285C16.7656 23.1223 16.4125 23.2692 16 23.2692ZM16 17.5C15.5875 17.5 15.2344 17.353 14.9408 17.0592C14.6469 16.7655 14.5 16.4125 14.5 16C14.5 15.5875 14.6469 15.2344 14.9408 14.9407C15.2344 14.6469 15.5875 14.5 16 14.5C16.4125 14.5 16.7656 14.6469 17.0592 14.9407C17.3531 15.2344 17.5 15.5875 17.5 16C17.5 16.4125 17.3531 16.7655 17.0592 17.0592C16.7656 17.353 16.4125 17.5 16 17.5ZM16 11.7307C15.5875 11.7307 15.2344 11.5839 14.9408 11.2902C14.6469 10.9964 14.5 10.6432 14.5 10.2307C14.5 9.81821 14.6469 9.46513 14.9408 9.17146C15.2344 8.87763 15.5875 8.73071 16 8.73071C16.4125 8.73071 16.7656 8.87763 17.0592 9.17146C17.3531 9.46513 17.5 9.81821 17.5 10.2307C17.5 10.6432 17.3531 10.9964 17.0592 11.2902C16.7656 11.5839 16.4125 11.7307 16 11.7307Z" fill="#EEEEEE"/>
</g>
</svg>
